<svg width="1280" height="720" xmlns="http://www.w3.org/2000/svg" xmlns:xlink="http://www.w3.org/1999/xlink" overflow="hidden"><defs><clipPath id="clip0"><rect x="0" y="0" width="1280" height="720"/></clipPath></defs><g clip-path="url(#clip0)"><rect x="0" y="0" width="1280" height="720" fill="#FFFFFF"/><path d="M0 0 7.45627 720" stroke="#4472C4" stroke-width="4" stroke-miterlimit="8" stroke-dasharray="16 12" fill="none" fill-rule="evenodd" transform="matrix(-1 0 0 1 183.456 0)"/><rect x="18.5001" y="318.5" width="130" height="84" stroke="#BC8C00" stroke-width="1.33333" stroke-miterlimit="8" fill="#FFC000"/><text fill="#FFFFFF" font-family="Calibri,Calibri_MSFontService,sans-serif" font-weight="400" font-size="24" transform="translate(51.0148 339)">Create <tspan font-size="24" x="-3.09333" y="29">Service </tspan><tspan font-size="24" x="-10.1467" y="58">Principal</tspan><tspan fill="#000000" font-size="24" x="-41.4147" y="-291">Command line</tspan></text><path d="M180 360 1280.12 360" stroke="#4472C4" stroke-width="4" stroke-miterlimit="8" fill="none" fill-rule="evenodd"/><text font-family="Calibri,Calibri_MSFontService,sans-serif" font-weight="400" font-size="24" transform="translate(226.765 48)">Azure ML Studio / command line</text><rect x="292.5" y="136.5" width="138" height="70" stroke="#BC8C00" stroke-width="1.33333" stroke-miterlimit="8" fill="#FFC000"/><text fill="#FFFFFF" font-family="Calibri,Calibri_MSFontService,sans-serif" font-weight="400" font-size="24" transform="translate(321.899 178)">AutoML</text><rect x="551.5" y="138.5" width="155" height="70" stroke="#BC8C00" stroke-width="1.33333" stroke-miterlimit="8" fill="#FFC000"/><text fill="#FFFFFF" font-family="Calibri,Calibri_MSFontService,sans-serif" font-weight="400" font-size="24" transform="translate(568.745 181)">Deployment</text><rect x="898.5" y="19.5001" width="156" height="70" stroke="#BC8C00" stroke-width="1.33333" stroke-miterlimit="8" fill="#FFC000"/><text fill="#FFFFFF" font-family="Calibri,Calibri_MSFontService,sans-serif" font-weight="400" font-size="24" transform="translate(920.721 47)">Application <tspan font-size="24" x="17.8134" y="29">Insights</tspan></text><rect x="898.5" y="100.5" width="156" height="70" stroke="#BC8C00" stroke-width="1.33333" stroke-miterlimit="8" fill="#FFC000"/><text fill="#FFFFFF" font-family="Calibri,Calibri_MSFontService,sans-serif" font-weight="400" font-size="24" transform="translate(934.735 142)">Swagger</text><rect x="898.5" y="190.5" width="156" height="69" stroke="#BC8C00" stroke-width="1.33333" stroke-miterlimit="8" fill="#FFC000"/><text fill="#FFFFFF" font-family="Calibri,Calibri_MSFontService,sans-serif" font-weight="400" font-size="24" transform="translate(909.581 232)">Scoring Script</text><rect x="898.5" y="277.5" width="156" height="70" stroke="#BC8C00" stroke-width="1.33333" stroke-miterlimit="8" fill="#FFC000"/><text fill="#FFFFFF" font-family="Calibri,Calibri_MSFontService,sans-serif" font-weight="400" font-size="24" transform="translate(939.431 305)">Apache <tspan font-size="24" x="-18.7534" y="29">Benchmark</tspan></text><path d="M213 169 282.223 169 282.223 173 213 173ZM280.223 165 292.223 171 280.223 177Z" fill="#4472C4"/><path d="M431 170 540.768 170 540.768 174 431 174ZM538.768 166 550.768 172 538.768 178Z" fill="#4472C4"/><path d="M0-2 97.8056-2 97.8056 118.954 95.8056 116.954 181.611 116.954 181.611 120.954 93.8056 120.954 93.8056 0 95.8056 2 0 2ZM179.611 112.954 191.611 118.954 179.611 124.954Z" fill="#4472C4" transform="matrix(1 0 0 -1 706 172.954)"/><path d="M706 171 803.806 171 803.806 311.463 801.806 309.463 887.611 309.463 887.611 313.463 799.806 313.463 799.806 173 801.806 175 706 175ZM885.611 305.463 897.611 311.463 885.611 317.463Z" fill="#4472C4"/><path d="M0-2 97.8056-2 97.8056 38.2856 95.8056 36.2856 181.611 36.2856 181.611 40.2856 93.8056 40.2856 93.8056 0 95.8056 2 0 2ZM179.611 32.2856 191.611 38.2856 179.611 44.2856Z" fill="#4472C4" transform="matrix(1 0 0 -1 706 173.286)"/><path d="M706 171 803.806 171 803.806 224.297 801.806 222.297 887.611 222.297 887.611 226.297 799.806 226.297 799.806 173 801.806 175 706 175ZM885.611 218.297 897.611 224.297 885.611 230.297Z" fill="#4472C4"/><path d="M0.00554267-1.99999 186.277-1.48377 186.266 2.51622-0.00554267 1.99999ZM184.288-5.4893 196.272 0.543937 184.255 6.51066Z" fill="#4472C4" transform="matrix(1 0 0 -1 1054 130.544)"/><path d="M1052 224 1239.56 224.256 1239.55 228.256 1052 228ZM1237.56 220.254 1249.55 226.27 1237.55 232.254Z" fill="#4472C4"/><text font-family="Calibri,Calibri_MSFontService,sans-serif" font-weight="400" font-size="24" transform="translate(222.415 156)">Data<tspan font-size="24" x="213.358" y="2">Best model</tspan><tspan font-size="24" x="486.485" y="1">Endpoint</tspan><tspan font-size="24" x="840.427" y="-116">Logs</tspan><tspan font-size="24" x="840.777" y="-41">Documentation</tspan><tspan font-size="24" x="839.495" y="59">Prediction</tspan><tspan font-size="24" x="835.806" y="146">Performance results</tspan></text><path d="M0.00554267-1.99999 186.277-1.48377 186.266 2.51622-0.00554267 1.99999ZM184.288-5.4893 196.272 0.543937 184.255 6.51066Z" fill="#4472C4" transform="matrix(1 0 0 -1 1053 54.5439)"/><path d="M0.00554267-1.99999 186.277-1.48377 186.266 2.51622-0.00554267 1.99999ZM184.288-5.4893 196.272 0.543937 184.255 6.51066Z" fill="#4472C4" transform="matrix(1 0 0 -1 1053 312.544)"/><text font-family="Calibri,Calibri_MSFontService,sans-serif" font-weight="400" font-size="24" transform="translate(226.765 417)">Jupyter<tspan font-size="24" x="77.4067" y="0">notebook</tspan></text><rect x="285.5" y="490.5" width="144" height="64" stroke="#BC8C00" stroke-width="1.33333" stroke-miterlimit="8" fill="#FFC000"/><text fill="#FFFFFF" font-family="Calibri,Calibri_MSFontService,sans-serif" font-weight="400" font-size="24" transform="translate(332.152 515)">Build <tspan font-size="24" x="-14.5867" y="29">pipeline</tspan></text><path d="M207 496 276.223 496 276.223 500 207 500ZM274.223 492 286.223 498 274.223 504Z" fill="#4472C4"/><text font-family="Calibri,Calibri_MSFontService,sans-serif" font-weight="400" font-size="24" transform="translate(219.047 486)">Data<tspan font-size="24" x="-17.4465" y="89">AutoML</tspan></text><rect x="818.5" y="447.5" width="107" height="52" stroke="#BC8C00" stroke-width="1.33333" stroke-miterlimit="8" fill="#FFC000"/><text fill="#FFFFFF" font-family="Calibri,Calibri_MSFontService,sans-serif" font-weight="400" font-size="24" transform="translate(851.969 481)">Run</text><rect x="820.5" y="543.5" width="107" height="52" stroke="#BC8C00" stroke-width="1.33333" stroke-miterlimit="8" fill="#FFC000"/><text fill="#FFFFFF" font-family="Calibri,Calibri_MSFontService,sans-serif" font-weight="400" font-size="24" transform="translate(838.94 577)">Deploy</text><rect x="1048.5" y="539.5" width="107" height="52" stroke="#BC8C00" stroke-width="1.33333" stroke-miterlimit="8" fill="#FFC000"/><text fill="#FFFFFF" font-family="Calibri,Calibri_MSFontService,sans-serif" font-weight="400" font-size="24" transform="translate(1082.53 573)">Run</text><path d="M0-2 196.364-2 196.364 48.7385 194.364 46.7385 378.728 46.7385 378.728 50.7385 192.364 50.7385 192.364 0 194.364 2 0 2ZM376.728 42.7385 388.728 48.7385 376.728 54.7385Z" fill="#4472C4" transform="matrix(1 0 0 -1 430 521.738)"/><path d="M429 520 625.641 520 625.641 568.709 623.641 566.709 808.281 566.709 808.281 570.709 621.641 570.709 621.641 522 623.641 524 429 524ZM806.281 562.709 818.281 568.709 806.281 574.709Z" fill="#4472C4"/><text font-family="Calibri,Calibri_MSFontService,sans-serif" font-weight="400" font-size="24" transform="translate(446.901 512)">AutoML<tspan font-size="24" x="83.1" y="0">pipeline</tspan></text><path d="M0.00100068-2 110.234-1.94485 110.232 2.05515-0.00100068 2ZM108.236-5.94585 120.233 0.0601575 108.23 6.05415Z" fill="#4472C4" transform="matrix(1 0 0 -1 925 473.06)"/><text font-family="Calibri,Calibri_MSFontService,sans-serif" font-weight="400" font-size="24" transform="translate(928.956 460)">Best<tspan font-size="24" x="47.5667" y="0">m</tspan><tspan font-size="24" x="66.7333" y="0">odel</tspan><tspan font-size="24" x="5.37195" y="97">Endpoint</tspan></text><path d="M0.00690145-1.99999 115.599-1.60111 115.585 2.39887-0.00690145 1.99999ZM113.613-5.60799 125.592 0.433386 113.571 6.39194Z" fill="#4472C4" transform="matrix(1 0 0 -1 927 567.433)"/><path d="M1155 563 1254.27 563 1254.27 567 1155 567ZM1252.27 559 1264.27 565 1252.27 571Z" fill="#4472C4"/><text font-family="Calibri,Calibri_MSFontService,sans-serif" font-weight="400" font-size="24" transform="translate(1160.69 559)">Best<tspan font-size="24" x="47.5667" y="0">m</tspan><tspan font-size="24" x="66.7333" y="0">odel</tspan></text><path d="M205 542 274.223 542 274.223 546 205 546ZM272.223 538 284.223 544 272.223 550Z" fill="#4472C4"/></g></svg>