<svg width="1280" height="720" xmlns="http://www.w3.org/2000/svg" xmlns:xlink="http://www.w3.org/1999/xlink" overflow="hidden"><defs><clipPath id="clip0"><rect x="0" y="0" width="1280" height="720"/></clipPath></defs><g clip-path="url(#clip0)"><rect x="0" y="0" width="1280" height="720" fill="#FFFFFF"/><path d="M0 0 7.45627 720" stroke="#4472C4" stroke-width="4" stroke-miterlimit="8" stroke-dasharray="16 12" fill="none" fill-rule="evenodd" transform="matrix(-1 0 0 1 183.456 0)"/><rect x="18.5001" y="318.5" width="130" height="84" stroke="#BC8C00" stroke-width="1.33333" stroke-miterlimit="8" fill="#FFC000"/><text fill="#FFFFFF" font-family="Calibri,Calibri_MSFontService,sans-serif" font-weight="400" font-size="24" transform="translate(51.0148 339)">Create <tspan font-size="24" x="-3.09333" y="29">Service </tspan><tspan font-size="24" x="-10.1467" y="58">Principal</tspan><tspan fill="#000000" font-size="24" x="-41.4147" y="-291">Command line</tspan></text><path d="M180 360 1280.12 360" stroke="#4472C4" stroke-width="4" stroke-miterlimit="8" fill="none" fill-rule="evenodd"/><text font-family="Calibri,Calibri_MSFontService,sans-serif" font-weight="400" font-size="24" transform="translate(226.765 48)">Azure ML Studio / command line</text><rect x="292.5" y="136.5" width="138" height="70" stroke="#BC8C00" stroke-width="1.33333" stroke-miterlimit="8" fill="#FFC000"/><text fill="#FFFFFF" font-family="Calibri,Calibri_MSFontService,sans-serif" font-weight="400" font-size="24" transform="translate(321.899 178)">AutoML</text><rect x="510.5" y="136.5" width="156" height="70" stroke="#BC8C00" stroke-width="1.33333" stroke-miterlimit="8" fill="#FFC000"/><text fill="#FFFFFF" font-family="Calibri,Calibri_MSFontService,sans-serif" font-weight="400" font-size="24" transform="translate(528.201 178)">Deploymen<tspan font-size="24" x="111.987" y="0">t</tspan></text><rect x="898.5" y="19.5001" width="156" height="70" stroke="#BC8C00" stroke-width="1.33333" stroke-miterlimit="8" fill="#FFC000"/><text fill="#FFFFFF" font-family="Calibri,Calibri_MSFontService,sans-serif" font-weight="400" font-size="24" transform="translate(920.721 47)">Application<tspan font-size="24" x="17.8134" y="29">Insight</tspan><tspan font-size="24" x="83.0933" y="29">s</tspan></text><rect x="898.5" y="100.5" width="156" height="70" stroke="#BC8C00" stroke-width="1.33333" stroke-miterlimit="8" fill="#FFC000"/><text fill="#FFFFFF" font-family="Calibri,Calibri_MSFontService,sans-serif" font-weight="400" font-size="24" transform="translate(934.735 142)">Swagge<tspan font-size="24" x="73.8867" y="0">r</tspan></text><rect x="898.5" y="190.5" width="156" height="69" stroke="#BC8C00" stroke-width="1.33333" stroke-miterlimit="8" fill="#FFC000"/><text fill="#FFFFFF" font-family="Calibri,Calibri_MSFontService,sans-serif" font-weight="400" font-size="24" transform="translate(909.581 232)">Scoring Script</text><rect x="898.5" y="277.5" width="156" height="70" stroke="#BC8C00" stroke-width="1.33333" stroke-miterlimit="8" fill="#FFC000"/><text fill="#FFFFFF" font-family="Calibri,Calibri_MSFontService,sans-serif" font-weight="400" font-size="24" transform="translate(939.431 305)">Apache<tspan font-size="24" x="-18.7534" y="29">Benchmar</tspan><tspan font-size="24" x="80.7466" y="29">k</tspan></text><path d="M213 169 282.223 169 282.223 173 213 173ZM280.223 165 292.223 171 280.223 177Z" fill="#4472C4"/><path d="M431 170 500.223 170 500.223 174 431 174ZM498.223 166 510.223 172 498.223 178Z" fill="#4472C4"/><path d="M0-2 118.078-2 118.078 116.635 116.078 114.635 222.155 114.635 222.155 118.635 114.078 118.635 114.078 0 116.078 2 0 2ZM220.155 110.635 232.155 116.635 220.155 122.635Z" fill="#4472C4" transform="matrix(1 0 0 -1 666 170.635)"/><path d="M666 169 784.078 169 784.078 311.782 782.078 309.782 888.155 309.782 888.155 313.782 780.078 313.782 780.078 171 782.078 173 666 173ZM886.155 305.782 898.155 311.782 886.155 317.782Z" fill="#4472C4"/><path d="M0-2 118.078-2 118.078 35.9663 116.078 33.9663 222.155 33.9663 222.155 37.9663 114.078 37.9663 114.078 0 116.078 2 0 2ZM220.155 29.9663 232.155 35.9663 220.155 41.9663Z" fill="#4472C4" transform="matrix(1 0 0 -1 666 170.966)"/><path d="M666 169 784.078 169 784.078 224.616 782.078 222.616 888.155 222.616 888.155 226.616 780.078 226.616 780.078 171 782.078 173 666 173ZM886.155 218.616 898.155 224.616 886.155 230.616Z" fill="#4472C4"/><path d="M0.00554267-1.99999 186.277-1.48377 186.266 2.51622-0.00554267 1.99999ZM184.288-5.4893 196.272 0.543937 184.255 6.51066Z" fill="#4472C4" transform="matrix(1 0 0 -1 1054 130.544)"/><path d="M1052 224 1239.56 224.256 1239.55 228.256 1052 228ZM1237.56 220.254 1249.55 226.27 1237.55 232.254Z" fill="#4472C4"/><text font-family="Calibri,Calibri_MSFontService,sans-serif" font-weight="400" font-size="24" transform="translate(222.415 156)">Data<tspan font-size="24" x="216" y="2">Mode</tspan>l<tspan font-size="24" x="454.601" y="2">Endpoin</tspan>t<tspan font-size="24" x="840.427" y="-116">Logs</tspan><tspan font-size="24" x="840.777" y="-41">Documentation</tspan><tspan font-size="24" x="839.495" y="59">Predi</tspan>c<tspan font-size="24" x="900.182" y="59">tion</tspan><tspan font-size="24" x="835.806" y="146">Performance results</tspan></text><path d="M0.00554267-1.99999 186.277-1.48377 186.266 2.51622-0.00554267 1.99999ZM184.288-5.4893 196.272 0.543937 184.255 6.51066Z" fill="#4472C4" transform="matrix(1 0 0 -1 1053 54.5439)"/><path d="M0.00554267-1.99999 186.277-1.48377 186.266 2.51622-0.00554267 1.99999ZM184.288-5.4893 196.272 0.543937 184.255 6.51066Z" fill="#4472C4" transform="matrix(1 0 0 -1 1053 312.544)"/><text font-family="Calibri,Calibri_MSFontService,sans-serif" font-weight="400" font-size="24" transform="translate(226.765 417)">Jupyter<tspan font-size="24" x="77.4067" y="0">noteboo</tspan>k</text><rect x="285.5" y="490.5" width="144" height="64" stroke="#BC8C00" stroke-width="1.33333" stroke-miterlimit="8" fill="#FFC000"/><text fill="#FFFFFF" font-family="Calibri,Calibri_MSFontService,sans-serif" font-weight="400" font-size="24" transform="translate(332.152 515)">Build <tspan font-size="24" x="-14.5867" y="29">pipeline</tspan></text><path d="M207 496 276.223 496 276.223 500 207 500ZM274.223 492 286.223 498 274.223 504Z" fill="#4472C4"/><text font-family="Calibri,Calibri_MSFontService,sans-serif" font-weight="400" font-size="24" transform="translate(219.047 486)">Data</text><path d="M205 547 274.223 547 274.223 551 205 551ZM272.223 543 284.223 549 272.223 555Z" fill="#4472C4"/><text font-family="Calibri,Calibri_MSFontService,sans-serif" font-weight="400" font-size="24" transform="translate(201.6 575)">AutoM<tspan font-size="24" x="67.4333" y="0">L</tspan></text><rect x="818.5" y="447.5" width="107" height="52" stroke="#BC8C00" stroke-width="1.33333" stroke-miterlimit="8" fill="#FFC000"/><text fill="#FFFFFF" font-family="Calibri,Calibri_MSFontService,sans-serif" font-weight="400" font-size="24" transform="translate(851.969 481)">Run</text><rect x="820.5" y="543.5" width="107" height="52" stroke="#BC8C00" stroke-width="1.33333" stroke-miterlimit="8" fill="#FFC000"/><text fill="#FFFFFF" font-family="Calibri,Calibri_MSFontService,sans-serif" font-weight="400" font-size="24" transform="translate(838.94 577)">Deplo<tspan font-size="24" x="57.54" y="0">y</tspan></text><rect x="1034.5" y="541.5" width="107" height="52" stroke="#BC8C00" stroke-width="1.33333" stroke-miterlimit="8" fill="#FFC000"/><text fill="#FFFFFF" font-family="Calibri,Calibri_MSFontService,sans-serif" font-weight="400" font-size="24" transform="translate(1068.43 575)">Run</text><path d="M0-2 196.364-2 196.364 48.7385 194.364 46.7385 378.728 46.7385 378.728 50.7385 192.364 50.7385 192.364 0 194.364 2 0 2ZM376.728 42.7385 388.728 48.7385 376.728 54.7385Z" fill="#4472C4" transform="matrix(1 0 0 -1 430 521.738)"/><path d="M426 521 626.485 521 626.485 568.835 624.485 566.835 812.971 566.835 812.971 570.835 622.485 570.835 622.485 523 624.485 525 426 525ZM810.971 562.835 822.971 568.835 810.971 574.835Z" fill="#4472C4"/><text font-family="Calibri,Calibri_MSFontService,sans-serif" font-weight="400" font-size="24" transform="translate(446.901 512)">AutoML<tspan font-size="24" x="83.1" y="0">pipeline</tspan></text><path d="M925 471 1024.27 471 1024.27 475 925 475ZM1022.27 467 1034.27 473 1022.27 479Z" fill="#4472C4"/><text font-family="Calibri,Calibri_MSFontService,sans-serif" font-weight="400" font-size="24" transform="translate(946.217 466)">Mode<tspan font-size="24" x="57.8333" y="0">l</tspan><tspan font-size="24" x="-11.889" y="91">Endpoin</tspan><tspan font-size="24" x="68.3909" y="91">t</tspan></text><path d="M927 565 1026.27 565 1026.27 569 927 569ZM1024.27 561 1036.27 567 1024.27 573Z" fill="#4472C4"/><path d="M1140 563 1239.27 563 1239.27 567 1140 567ZM1237.27 559 1249.27 565 1237.27 571Z" fill="#4472C4"/><text font-family="Calibri,Calibri_MSFontService,sans-serif" font-weight="400" font-size="24" transform="translate(1161.22 558)">Mode<tspan font-size="24" x="57.8334" y="0">l</tspan></text></g></svg>